<svg xmlns="http://www.w3.org/2000/svg" width="1200" height="800" viewBox="0 0 1200 800" role="img" aria-label="VR 头显爆炸图海报">
  <defs>
    <linearGradient id="bg" x1="0" x2="1" y1="0" y2="1"><stop offset="0" stop-color="#08111d"/><stop offset=".55" stop-color="#78a8ff"/><stop offset="1" stop-color="#050505"/></linearGradient>
    <radialGradient id="halo" cx="70%" cy="20%" r="65%"><stop offset="0" stop-color="#d7e6ff" stop-opacity=".38"/><stop offset="1" stop-color="#d7e6ff" stop-opacity="0"/></radialGradient>
    <pattern id="dots" width="34" height="34" patternUnits="userSpaceOnUse"><circle cx="3" cy="3" r="2" fill="rgba(255,255,255,.12)"/></pattern>
  </defs>
  <rect width="1200" height="800" fill="url(#bg)"/>
  <rect width="1200" height="800" fill="url(#halo)"/>
  <rect width="1200" height="800" fill="url(#dots)" opacity=".55"/>
  <rect x="72" y="72" width="1056" height="656" rx="44" fill="rgba(0,0,0,.18)" stroke="rgba(255,255,255,.22)"/>
  <ellipse cx="600" cy="360" rx="260" ry="142" fill="rgba(255,255,255,.16)" stroke="rgba(255,255,255,.72)" stroke-width="5"/><rect x="400" y="282" width="400" height="152" rx="72" fill="rgba(255,255,255,.20)"/><circle cx="510" cy="358" r="34" fill="rgba(255,255,255,.58)"/><circle cx="690" cy="358" r="34" fill="rgba(255,255,255,.58)"/><g stroke="white" stroke-opacity=".58" stroke-width="3"><path d="M600 210v-70M430 260l-90-70M770 260l90-70M600 512v90"/></g>
  <text x="120" y="150" fill="rgba(255,255,255,.74)" font-family="Arial, sans-serif" font-size="24" letter-spacing="4">CASE 017</text>
  <text x="120" y="690" fill="white" font-family="Arial, 'Noto Sans SC', sans-serif" font-size="48" font-weight="700">VR 头显爆炸图海报</text>
  <text x="120" y="733" fill="rgba(255,255,255,.72)" font-family="Arial, 'Noto Sans SC', sans-serif" font-size="22">产品与电商 · Janet Prompt Handbook</text>
</svg>